<svg version="1.1" id="圖層_1" xmlns="http://www.w3.org/2000/svg" x="0" y="0" viewBox="0 0 333 117.7" xml:space="preserve"><style>.st0{fill:#c6040d}.st1{font-family:&apos;NotoSansCJKtc-Bold-B5pc-H&apos;}.st4{fill:#0c2d8a}.st5{fill:#c1272d}.st6{fill:#006837}</style><g id="LOGO" transform="translate(-380 -31)"><text transform="translate(580.35 92.77)" class="st0 st1" font-size="34.973">开奖网</text><text transform="translate(582.389 123.963)" class="st0 st1" font-size="24.576">XXXX.com</text><g id="组_57" transform="translate(-94 -252)"><g id="组_59" transform="translate(474 295)"><g id="组_57-2" transform="translate(0 32.526)"><path id="路径_38" class="st4" d="M32.7 20.9l-11-2.5c-1.1 4.9-2.5 9.8-4.3 14.5-2 4.5-4.4 8.7-7.1 12.7l.8.4c4.5-3.2 8.6-6.9 12.4-11 3.1-3.5 5.9-7.4 8.2-11.5 1.5-.5 2.2-1.1 2.2-1.6 0-.4-.4-.8-1.2-1z"/><path id="路径_39" class="st4" d="M37.1 19l-.6.8c4.6 4.5 7.8 10.2 9.2 16.4 1.2 6.2 3.4 9.3 6.7 9.3 1.3-.1 2.4-.7 3.2-1.7.9-1 1.4-2.3 1.4-3.7 0-4.1-1.4-8-3.8-11.3-2.5-3.5-7.9-6.7-16.1-9.8z"/><path id="路径_40" class="st4" d="M51.5 6.1l-4.9 6.1h-10c.3-.2.6-.5.9-.7.1-.1.1-.2.2-.3h-1.5c-2.1.1-4.1.1-6.2 0 .4.4.8.7 1.2.9H10.4l.6 1.4h46.1l1.4-1.4-7-6z"/><path id="路径_41" class="st4" d="M86.4-1.2L97.2.5c.7.3 1.1.6 1.1 1.1 0 .5-.7 1-2 1.4l-.3.5c2.3 2.1 4.8 4 7.6 5.4 4.6 2 9.4 3.4 14.3 4.4v1c-2.3 1-4 3.9-4.9 8.5-5.2-2.6-9.2-5.3-11.9-8-1.9-1.7-4-4.9-6.4-9.7-4.2 5.5-8 9.4-11.2 12-.3.2-.7.5-1 .7h10.9l4.2-5.3 6.3 5.3-1.2 1.4H82.5l-.5-1.1c-3.9 2.7-8.3 4.8-12.8 6.2l-.4-.6c3.7-3 6.9-6.6 9.6-10.5 2.2-2.9 4.8-7.6 8-14.4zM76 23.1l8.7 3h15.5l3.8-3.2 6.5 4.2c.7.5 1 .9 1 1.2 0 .4-.7.9-2 1.4v16.2l-9.1 1.2v-5H84.7v3.6L76 47.1v-24zm8.7 17.5h15.8V27.5H84.7v13.1z"/><path id="路径_42" class="st4" d="M146.1 20.5l5.3 4.2-1 1.4h-9.5v1.7c3.8 1.3 6.3 2.6 7.5 3.7 1 1.2 1.5 2.6 1.6 4.1 0 .9-.3 1.8-.9 2.5-.6.7-1.5 1.1-2.5 1.1-1.1 0-2.1-.4-2.8-1.1-.9-.6-1.4-2.1-1.5-4.3-.2-1.3-.6-2.5-1.3-3.5v16l-8.3 1V37c-2.7 2.4-5.7 4.3-9.1 5.6l-.4-1c1.9-2.1 3.4-4.5 4.7-7.1 1.2-2.7 2.1-5.6 2.8-8.5h-6.5l-.6-1.4h9.1V19l8.2.5c1.1.1 1.7.4 1.7.9 0 .4-.5.8-1.6 1.2v3.1h1.6l3.5-4.2zm3.3-15.2c-11.9 2.1-20.5 3.2-25.9 3.2l-.2-.8c7.3-1.8 14.2-4.7 20.6-8.7l7.1 5.1c.5.3.7.7.7.9 0 .4-.3.6-.8.6-.5.1-1-.1-1.5-.3zm-24.3 4c3.3 1.1 5.4 2.1 6.4 3.1 1.4 1.7 1.4 4.2 0 5.9-.8.8-1.8 1.3-2.9 1.3-.6-.1-1.1-.4-1.4-.9-.4-.5-.7-1.7-.8-3.6-.1-1.8-.8-3.5-1.8-5l.5-.8zm8.1-1.4c3.4 1.2 5.7 2.3 6.7 3.3.7.9 1.1 2 1.1 3.2 0 1-.4 2-1 2.7-.7.8-1.7 1.3-2.8 1.3-.7-.1-1.3-.4-1.7-1-.5-.5-.8-1.7-.9-3.6-.1-1.9-.9-3.7-2.1-5.1l.7-.8zm11.7-1.6l6.6 3.1c.8.4 1.2.8 1.2 1.2 0 .4-.6.7-1.8.8-2.6 3-5.7 5.6-9.1 7.7l-.2-.6c1.4-4 2.5-8.1 3.3-12.2z"/></g><path id="路径_43" class="st5" d="M174.2 51.7c-2.3 1.1-4.6 2.2-6.8 3.3-4.6 2.3-9.2 4.5-13.9 6.8l-.5.5 9.9 8.5-14.5 6.8c-.5 6.6-.9 13.2-1.6 19.7-.1 1.1-.4 2.1-.4 3.2 1-1.5 1.4-3.5 1.9-5.2l1.8-5.8 2.7-8.6v-.1l21.5-8.6-9.6-11.9 9.5-8.6z"/><g id="组_58" transform="translate(11.475)"><circle id="椭圆_9" class="st5" cx="21.4" cy="33.2" r="11.8"/><circle id="椭圆_10" class="st6" cx="47.5" cy="16.3" r="10.2"/><circle id="椭圆_11" class="st5" cx="74.4" cy="8.5" r="7.9"/><circle id="椭圆_12" class="st6" cx="99.8" cy="8.5" r="7.2"/><circle id="椭圆_13" class="st4" cx="123" cy="14.4" r="6.3"/><circle id="椭圆_14" class="st5" cx="142.2" cy="22.6" r="5.5"/><circle id="椭圆_15" class="st4" cx="154.4" cy="32.2" r="4.8"/></g><path id="路径_44" class="st5" d="M188.3 17.7l-13.6-8.5-9.9 16.8c3.4-.6 6.7 1.7 7.3 5.1.6 3.4-1.7 6.7-5.1 7.3-3.1.5-6.1-1.2-7.1-4.2l-8.6 14.6L170 47l-6.1 5.5c6.5-3.2 13.1-6.4 19.7-9.5l4.5-4.1-19.1-.4 19.3-20.8z"/></g></g><text transform="translate(518.708 51.18)" class="st1" font-size="16.069" fill="#434343">官方</text></g></svg>