<svg xmlns="http://www.w3.org/2000/svg" xmlns:xlink="http://www.w3.org/1999/xlink" width="1190" height="180.965" viewBox="0 0 1190 180.965">
  <defs>
    <style>
      .cls-1 {
        fill: #f9f9f9;
      }

      .cls-2, .cls-3 {
        stroke: none;
      }

      .cls-3 {
        fill: #ccc;
      }

      .cls-4 {
        filter: url(#圖表統計-特碼選單);
      }
    </style>
    <filter id="圖表統計-特碼選單" x="0" y="0" width="1190" height="180.965" filterUnits="userSpaceOnUse">
      <feOffset dy="3" input="SourceAlpha"/>
      <feGaussianBlur stdDeviation="3" result="blur"/>
      <feFlood flood-opacity="0.161"/>
      <feComposite operator="in" in2="blur"/>
      <feComposite in="SourceGraphic"/>
    </filter>
  </defs>
  <g class="cls-4" transform="matrix(1, 0, 0, 1, 0, 0)">
    <g id="圖表統計-特碼選單-2" data-name="圖表統計-特碼選單" class="cls-1" transform="translate(2097 1564)">
      <path class="cls-2" d="M -917.000244140625 -1396.03515625 L -2087 -1396.03515625 L -2087 -1504.999877929688 L -2087 -1538.000122070313 C -2087 -1540.565551757813 -2086.497802734375 -1543.0537109375 -2085.50732421875 -1545.395385742188 C -2084.55029296875 -1547.657836914063 -2083.18017578125 -1549.689819335938 -2081.43505859375 -1551.43505859375 C -2079.68994140625 -1553.180297851563 -2077.65771484375 -1554.55029296875 -2075.3955078125 -1555.507202148438 C -2073.053955078125 -1556.497680664063 -2070.565673828125 -1556.999877929688 -2068.000244140625 -1556.999877929688 L -1967.000366210938 -1556.999877929688 C -1964.434936523438 -1556.999877929688 -1961.946655273438 -1556.497680664063 -1959.60498046875 -1555.507202148438 C -1957.342407226563 -1554.55029296875 -1955.310302734375 -1553.180297851563 -1953.56494140625 -1551.43505859375 C -1951.819702148438 -1549.689819335938 -1950.449462890625 -1547.65771484375 -1949.492553710938 -1545.395385742188 C -1948.501953125 -1543.0537109375 -1947.999633789063 -1540.565551757813 -1947.999633789063 -1538.000122070313 L -1947.999633789063 -1511.000122070313 L -1947.999633789063 -1510.000122070313 L -1946.999633789063 -1510.000122070313 L -917.000244140625 -1510.000122070313 L -917.000244140625 -1396.03515625 Z"/>
      <path class="cls-3" d="M -918.0003051757813 -1397.03515625 L -918.0003051757813 -1509.000244140625 L -1946.999633789063 -1509.000244140625 L -1948.999633789063 -1509.000244140625 L -1948.999633789063 -1511.000244140625 L -1948.999633789063 -1538.000244140625 C -1948.999633789063 -1542.807983398438 -1950.8720703125 -1547.328247070313 -1954.272094726563 -1550.727905273438 C -1957.671997070313 -1554.127563476563 -1962.1923828125 -1555.999877929688 -1967.00048828125 -1555.999877929688 L -2068.000244140625 -1555.999877929688 C -2072.80810546875 -1555.999877929688 -2077.328369140625 -1554.127563476563 -2080.72802734375 -1550.727905273438 C -2084.127685546875 -1547.328369140625 -2086 -1542.808227539063 -2086 -1538.000244140625 L -2086 -1504.999877929688 L -2086 -1397.03515625 L -918.0003051757813 -1397.03515625 M -916.0003051757813 -1395.03515625 L -2088 -1395.03515625 L -2088 -1504.999877929688 L -2088 -1538.000244140625 C -2088 -1549.0458984375 -2079.0458984375 -1557.999877929688 -2068.000244140625 -1557.999877929688 L -1967.00048828125 -1557.999877929688 C -1955.954711914063 -1557.999877929688 -1946.999633789063 -1549.0458984375 -1946.999633789063 -1538.000244140625 L -1946.999633789063 -1511.000244140625 L -916.0003051757813 -1511.000244140625 L -916.0003051757813 -1395.03515625 Z"/>
    </g>
  </g>
</svg>
