<svg xmlns="http://www.w3.org/2000/svg" width="25.001" height="25.001" viewBox="0 0 25.001 25.001">
  <g id="ICON-开奖视频" transform="translate(-194.999 -10)">
    <path id="减去_2" data-name="减去 2" d="M-10265.083-641c-.574,0-1.041-.623-1.041-1.389s-.468-1.389-1.043-1.389-1.04.623-1.04,1.389-.469,1.389-1.044,1.389-1.04-.623-1.04-1.389-.468-1.389-1.043-1.389-1.041.623-1.041,1.389-.468,1.389-1.043,1.389-1.04-.623-1.04-1.389-.467-1.389-1.041-1.389-1.043.623-1.043,1.389-.467,1.389-1.04,1.389-1.044-.623-1.044-1.389-.467-1.389-1.04-1.389-1.043.623-1.043,1.389-.467,1.389-1.041,1.389-1.043-.623-1.043-1.389-.467-1.389-1.04-1.389-1.041.623-1.041,1.389-.468,1.389-1.043,1.389c-1.149,0-2.084-1.246-2.084-2.778v-19.445c0-1.532.935-2.778,2.084-2.778.575,0,1.043.623,1.043,1.389s.467,1.389,1.041,1.389,1.04-.623,1.04-1.389.468-1.389,1.043-1.389,1.041.623,1.041,1.389.468,1.389,1.043,1.389,1.04-.623,1.04-1.389.469-1.389,1.044-1.389,1.04.623,1.04,1.389.468,1.389,1.043,1.389,1.041-.623,1.041-1.389.467-1.389,1.04-1.389,1.043.623,1.043,1.389.467,1.389,1.041,1.389,1.043-.623,1.043-1.389.467-1.389,1.04-1.389,1.044.623,1.044,1.389.467,1.389,1.04,1.389,1.043-.623,1.043-1.389.467-1.389,1.041-1.389c1.148,0,2.083,1.246,2.083,2.778v19.445C-10263-642.246-10263.935-641-10265.083-641ZM-10279-658v9l9-4.5-9-4.5Z" transform="translate(10483 676)" fill="#fff"/>
  </g>
</svg>
