<svg xmlns="http://www.w3.org/2000/svg" width="25" height="25" viewBox="0 0 25 25">
  <g id="ICON-FAQ" transform="translate(-277.838 -10)">
    <path id="Question" d="M612.806,646.887a12.5,12.5,0,0,0-24.955,1.09,11.483,11.483,0,0,0,1.5,5.965,1.906,1.906,0,0,1,.125,1.564l-1.3,3.775a.485.485,0,0,0,.127.528.521.521,0,0,0,.549.1l3.473-1.312a2.136,2.136,0,0,1,1.82.1,12.8,12.8,0,0,0,13.042-.361,11.988,11.988,0,0,0,5.581-11.449Zm-12.322,6.278a1.01,1.01,0,1,1,1.04-1.009A1.025,1.025,0,0,1,600.484,653.165Zm1.872-5.693a1.879,1.879,0,0,0-.832,1.655,1.04,1.04,0,0,1-2.08,0,3.822,3.822,0,0,1,1.5-3.129c.447-.4.582-.545.582-.908,0-.777-.239-1.009-1.04-1.009s-1.04.232-1.04,1.009a1.04,1.04,0,0,1-2.08,0,3.121,3.121,0,0,1,6.239,0A3,3,0,0,1,602.356,647.473Z" transform="translate(-310 -625.308)" fill="#fff"/>
  </g>
</svg>
