<svg xmlns="http://www.w3.org/2000/svg" width="24.999" height="24.999" viewBox="0 0 24.999 24.999">
  <g id="ICON-开奖公告" transform="translate(-113.999 -10)">
    <path id="联合_3" data-name="联合 3" d="M-10283.957-837.024V-842.5a2.01,2.01,0,0,1,.163-.8c-.457-.022-.8-.034-.912-.034h-.261A3.337,3.337,0,0,1-10288-846.9v-2.381a3.338,3.338,0,0,1,3.034-3.573h.261c.482,0,4.991-.2,5.357-.571l5.66-5.714a2.78,2.78,0,0,1,2.021-.857,2.1,2.1,0,0,1,1.91,2.251v6.126a3.561,3.561,0,0,1,2.982,3.528,3.561,3.561,0,0,1-2.982,3.528v6.124a2.1,2.1,0,0,1-1.91,2.251,2.78,2.78,0,0,1-2.021-.857l-5.66-5.714a1.492,1.492,0,0,0-.617-.195,2,2,0,0,1,.052.456v5.479a2.021,2.021,0,0,1-2.021,2.022A2.021,2.021,0,0,1-10283.957-837.024Zm17.208-7.193a1.282,1.282,0,0,1,.48-1.343,3.059,3.059,0,0,0,1.25-2.543,3.058,3.058,0,0,0-1.25-2.541,1.229,1.229,0,0,1-.545-1.038,1.242,1.242,0,0,1,.52-1.056.88.88,0,0,1,1.035.034,5.543,5.543,0,0,1,2.257,4.6,5.54,5.54,0,0,1-2.257,4.6.893.893,0,0,1-.506.168h0A1.056,1.056,0,0,1-10266.749-844.217Z" transform="translate(10402 870.001)" fill="#fff"/>
  </g>
</svg>
