<svg xmlns="http://www.w3.org/2000/svg" width="25" height="22" viewBox="0 0 25 22">
  <g id="ICON-首页" transform="translate(-29.478 -12)">
    <path id="Diamond" d="M325.149,2852.92l-3.938-5.956a2.2,2.2,0,0,0-1.844-.964H306.588a2.2,2.2,0,0,0-1.844.964l-3.938,5.956a1.962,1.962,0,0,0,.2,2.419l11.152,12.3a1.126,1.126,0,0,0,1.649,0l11.152-12.3a1.961,1.961,0,0,0,.2-2.419Zm-11.488,12.3a1.128,1.128,0,0,1-.8.229,1.105,1.105,0,0,1-.733-.372l-4.828-5.587a.989.989,0,0,1,.152-1.445,1.131,1.131,0,0,1,1.53.143l4.828,5.587a.988.988,0,0,1,.253.763,1.011,1.011,0,0,1-.4.7Z" transform="translate(-271 -2834)" fill="#fff"/>
  </g>
</svg>
