<svg xmlns="http://www.w3.org/2000/svg" width="1180" height="300" viewBox="0 0 1180 300">
  <defs>
    <style>
      .cls-1 {
        fill: #d9d9d9;
      }
    </style>
  </defs>
  <g id="彩种底" transform="translate(-17678 -4741)">
    <path id="减去_10" data-name="减去 10" class="cls-1" d="M1180,300H0V47.767H214.877L264.071,0H1180ZM842,52.935V294.256h331V52.935Zm-837,0V294.256H836V52.935Z" transform="translate(17678 4741)"/>
    <g id="减去_4" data-name="减去 4" transform="translate(18131.385 5223.484)">
      <path id="路径_245" data-name="路径 245" class="cls-1" d="M-241.5-438.984h-7.753l33.991-33.579.867-.856H-224.82l-.146.144-34.712,34.291h-8.577l33.991-33.579.867-.856H-243.82l-.146.144-34.712,34.291h-169.2a39.222,39.222,0,0,1,3.1-14.875,39.384,39.384,0,0,1,8.465-12.556,39.384,39.384,0,0,1,12.556-8.465,39.246,39.246,0,0,1,15.375-3.1h206.327Z"/>
      <path id="路径_246" data-name="路径 246" class="cls-1" d="M-241.708-439.484l38.433-38h-205.11a38.76,38.76,0,0,0-15.18,3.064,38.886,38.886,0,0,0-12.4,8.359,38.886,38.886,0,0,0-8.359,12.4,38.723,38.723,0,0,0-3.052,14.18h168.489l34.566-34.146.292-.289h11.846l-1.732,1.711-33.126,32.724h7.154l34.566-34.146.292-.289h11.846l-1.732,1.711-33.126,32.724h6.33m.411,1h-9.176l34.858-34.435h-9l-34.858,34.435h-10l34.858-34.435h-9l-34.858,34.435H-448.385a40,40,0,0,1,40-40h207.544Z"/>
    </g>
  </g>
</svg>
