<svg xmlns="http://www.w3.org/2000/svg" viewBox="0 0 100 36"><defs><style>.cls-1{fill:#fff;}.cls-2,.cls-3{fill:#fe001d;}.cls-3{isolation:isolate;font-size:21px;font-family:MicrosoftYaHei, Microsoft YaHei;letter-spacing:0.1em;}</style></defs><g id="圖層_2" data-name="圖層 2"><g id="圖層_1-2" data-name="圖層 1"><g id="组件_31_2" data-name="组件 31 2"><g id="矩形_691" data-name="矩形 691"><path class="cls-1" d="M18,35.5a17.5,17.5,0,0,1,0-35H82a17.5,17.5,0,0,1,0,35Z"/><path class="cls-2" d="M82,1a17,17,0,0,1,0,34H18A17,17,0,0,1,18,1H82m0-1H18a18,18,0,0,0,0,36H82A18,18,0,0,0,82,0Z"/></g><circle id="椭圆_55" data-name="椭圆 55" class="cls-2" cx="18" cy="18" r="15"/><path id="路径_257" data-name="路径 257" class="cls-1" d="M26.54,17.89,11.46,9.19V26.6Z"/><g id="直播"><text class="cls-3" transform="translate(39.21 25.32)">直播</text></g></g></g></g></svg>