<?xml version="1.0" encoding="utf-8"?>
<!-- Generator: Adobe Illustrator 24.2.1, SVG Export Plug-In . SVG Version: 6.00 Build 0)  -->
<svg version="1.1" id="圖層_1" xmlns="http://www.w3.org/2000/svg" xmlns:xlink="http://www.w3.org/1999/xlink" x="0px" y="0px"
	 viewBox="0 0 333 117.7" style="enable-background:new 0 0 333 117.7;" xml:space="preserve">
<style type="text/css">
	.st0{fill:#C6040D;}
	.st1{font-family:'NotoSansCJKtc-Bold-B5pc-H';}
	.st2{font-size:34.9734px;}
	.st3{font-size:24.5759px;}
	.st4{fill:#0C2D8A;}
	.st5{fill:#C1272D;}
	.st6{fill:#006837;}
	.st7{fill:#434343;}
	.st8{font-size:16.0689px;}
</style>
<g id="LOGO" transform="translate(-380 -31)">
	<text transform="matrix(1 0 0 1 580.3506 92.7706)" class="st0 st1 st2">开奖网</text>
	<text transform="matrix(1 0 0 1 582.3887 123.963)" class="st0 st1 st3">XXXX.com</text>
	<g id="组_57" transform="translate(-94 -252)">
		<g id="组_59" transform="translate(474 295)">
			<g id="组_57-2" transform="translate(0 32.526)">
				<path id="路径_38" class="st4" d="M32.7,20.9l-11-2.5c-1.1,4.9-2.5,9.8-4.3,14.5c-2,4.5-4.4,8.7-7.1,12.7l0.8,0.4
					c4.5-3.2,8.6-6.9,12.4-11c3.1-3.5,5.9-7.4,8.2-11.5c1.5-0.5,2.2-1.1,2.2-1.6C33.9,21.5,33.5,21.1,32.7,20.9z"/>
				<path id="路径_39" class="st4" d="M37.1,19l-0.6,0.8c4.6,4.5,7.8,10.2,9.2,16.4c1.2,6.2,3.4,9.3,6.7,9.3
					c1.3-0.1,2.4-0.7,3.2-1.7c0.9-1,1.4-2.3,1.4-3.7c0-4.1-1.4-8-3.8-11.3C50.7,25.3,45.3,22.1,37.1,19z"/>
				<path id="路径_40" class="st4" d="M51.5,6.1l-4.9,6.1h-10c0.3-0.2,0.6-0.5,0.9-0.7c0.1-0.1,0.1-0.2,0.2-0.3h-1.5
					c-2.1,0.1-4.1,0.1-6.2,0c0,0,0,0,0,0c0.4,0.4,0.8,0.7,1.2,0.9H10.4l0.6,1.4h46.1l1.4-1.4L51.5,6.1z"/>
				<path id="路径_41" class="st4" d="M86.4-1.2l10.8,1.7c0.7,0.3,1.1,0.6,1.1,1.1c0,0.5-0.7,1-2,1.4L96,3.5
					c2.3,2.1,4.8,4,7.6,5.4c4.6,2,9.4,3.4,14.3,4.4v1c-2.3,1-4,3.9-4.9,8.5c-5.2-2.6-9.2-5.3-11.9-8c-1.9-1.7-4-4.9-6.4-9.7
					c-4.2,5.5-8,9.4-11.2,12c-0.3,0.2-0.7,0.5-1,0.7h10.9l4.2-5.3l6.3,5.3l-1.2,1.4H82.5L82,18.1c-3.9,2.7-8.3,4.8-12.8,6.2
					l-0.4-0.6c3.7-3,6.9-6.6,9.6-10.5C80.6,10.3,83.2,5.6,86.4-1.2z M76,23.1l8.7,3h15.5l3.8-3.2l6.5,4.2c0.7,0.5,1,0.9,1,1.2
					c0,0.4-0.7,0.9-2,1.4v16.2l-9.1,1.2v-5H84.7v3.6L76,47.1L76,23.1z M84.7,40.6h15.8V27.5H84.7L84.7,40.6z"/>
				<path id="路径_42" class="st4" d="M146.1,20.5l5.3,4.2l-1,1.4h-9.5v1.7c3.8,1.3,6.3,2.6,7.5,3.7c1,1.2,1.5,2.6,1.6,4.1
					c0,0.9-0.3,1.8-0.9,2.5c-0.6,0.7-1.5,1.1-2.5,1.1c-1.1,0-2.1-0.4-2.8-1.1c-0.9-0.6-1.4-2.1-1.5-4.3c-0.2-1.3-0.6-2.5-1.3-3.5v16
					l-8.3,1V37c-2.7,2.4-5.7,4.3-9.1,5.6l-0.4-1c1.9-2.1,3.4-4.5,4.7-7.1c1.2-2.7,2.1-5.6,2.8-8.5h-6.5l-0.6-1.4h9.1V19l8.2,0.5
					c1.1,0.1,1.7,0.4,1.7,0.9c0,0.4-0.5,0.8-1.6,1.2v3.1h1.6L146.1,20.5z M149.4,5.3c-11.9,2.1-20.5,3.2-25.9,3.2l-0.2-0.8
					c7.3-1.8,14.2-4.7,20.6-8.7l7.1,5.1c0.5,0.3,0.7,0.7,0.7,0.9c0,0.4-0.3,0.6-0.8,0.6C150.4,5.7,149.9,5.5,149.4,5.3L149.4,5.3z
					 M125.1,9.3c3.3,1.1,5.4,2.1,6.4,3.1c1.4,1.7,1.4,4.2,0,5.9c-0.8,0.8-1.8,1.3-2.9,1.3c-0.6-0.1-1.1-0.4-1.4-0.9
					c-0.4-0.5-0.7-1.7-0.8-3.6c-0.1-1.8-0.8-3.5-1.8-5L125.1,9.3z M133.2,7.9c3.4,1.2,5.7,2.3,6.7,3.3c0.7,0.9,1.1,2,1.1,3.2
					c0,1-0.4,2-1,2.7c-0.7,0.8-1.7,1.3-2.8,1.3c-0.7-0.1-1.3-0.4-1.7-1c-0.5-0.5-0.8-1.7-0.9-3.6c-0.1-1.9-0.9-3.7-2.1-5.1
					L133.2,7.9z M144.9,6.3l6.6,3.1c0.8,0.4,1.2,0.8,1.2,1.2c0,0.4-0.6,0.7-1.8,0.8c-2.6,3-5.7,5.6-9.1,7.7l-0.2-0.6
					C143,14.5,144.1,10.4,144.9,6.3L144.9,6.3z"/>
			</g>
			<path id="路径_43" class="st5" d="M174.2,51.7c-2.3,1.1-4.6,2.2-6.8,3.3c-4.6,2.3-9.2,4.5-13.9,6.8l-0.5,0.5l9.9,8.5l-14.5,6.8
				c-0.5,6.6-0.9,13.2-1.6,19.7c-0.1,1.1-0.4,2.1-0.4,3.2c1-1.5,1.4-3.5,1.9-5.2l1.8-5.8l2.7-8.6c0,0,0-0.1,0-0.1l21.5-8.6
				l-9.6-11.9L174.2,51.7z"/>
			<g id="组_58" transform="translate(11.475 0)">
				<circle id="椭圆_9" class="st5" cx="21.4" cy="33.2" r="11.8"/>
				<circle id="椭圆_10" class="st6" cx="47.5" cy="16.3" r="10.2"/>
				<circle id="椭圆_11" class="st5" cx="74.4" cy="8.5" r="7.9"/>
				<circle id="椭圆_12" class="st6" cx="99.8" cy="8.5" r="7.2"/>
				<circle id="椭圆_13" class="st4" cx="123" cy="14.4" r="6.3"/>
				<circle id="椭圆_14" class="st5" cx="142.2" cy="22.6" r="5.5"/>
				<circle id="椭圆_15" class="st4" cx="154.4" cy="32.2" r="4.8"/>
			</g>
			<path id="路径_44" class="st5" d="M188.3,17.7l-13.6-8.5L164.8,26c3.4-0.6,6.7,1.7,7.3,5.1c0.6,3.4-1.7,6.7-5.1,7.3
				c-3.1,0.5-6.1-1.2-7.1-4.2l-8.6,14.6L170,47l-6.1,5.5c6.5-3.2,13.1-6.4,19.7-9.5l4.5-4.1l-19.1-0.4L188.3,17.7z"/>
		</g>
	</g>
	<text transform="matrix(1 0 0 1 518.708 51.1808)" class="st7 st1 st8">官方</text>
</g>
</svg>
