<svg xmlns="http://www.w3.org/2000/svg" xmlns:xlink="http://www.w3.org/1999/xlink" width="1190.002" height="180.965" viewBox="0 0 1190.002 180.965">
  <defs>
    <filter id="联合_8" x="0" y="0" width="1190.002" height="180.965" filterUnits="userSpaceOnUse">
      <feOffset dy="3" input="SourceAlpha"/>
      <feGaussianBlur stdDeviation="3" result="blur"/>
      <feFlood flood-opacity="0.161"/>
      <feComposite operator="in" in2="blur"/>
      <feComposite in="SourceGraphic"/>
    </filter>
  </defs>
  <g transform="matrix(1, 0, 0, 1, 0, 0)" filter="url(#联合_8)">
    <g id="联合_8-2" data-name="联合 8" transform="translate(21297 7191)" fill="#f9f9f9">
      <path d="M -20116.998046875 -7023.03564453125 L -21287 -7023.03564453125 L -21287 -7137.001953125 L -21147.998046875 -7137.001953125 L -21146.998046875 -7137.001953125 L -21146.998046875 -7138.001953125 L -21146.998046875 -7164.99755859375 C -21146.998046875 -7167.5634765625 -21146.49609375 -7170.05224609375 -21145.505859375 -7172.39453125 C -21144.548828125 -7174.65771484375 -21143.177734375 -7176.68994140625 -21141.43359375 -7178.43505859375 C -21139.6875 -7180.1806640625 -21137.65625 -7181.55078125 -21135.39453125 -7182.5078125 C -21133.052734375 -7183.498046875 -21130.564453125 -7184.00048828125 -21128 -7184.00048828125 L -21027 -7184.00048828125 C -21024.435546875 -7184.00048828125 -21021.947265625 -7183.498046875 -21019.60546875 -7182.5078125 C -21017.34375 -7181.55078125 -21015.310546875 -7180.1806640625 -21013.56640625 -7178.435546875 C -21011.8203125 -7176.68994140625 -21010.451171875 -7174.65771484375 -21009.494140625 -7172.39501953125 C -21008.50390625 -7170.052734375 -21008.001953125 -7167.56396484375 -21008.001953125 -7164.99755859375 L -21008.001953125 -7138.001953125 L -21008.001953125 -7137.001953125 L -21007.001953125 -7137.001953125 L -20116.998046875 -7137.001953125 L -20116.998046875 -7023.03564453125 Z" stroke="none"/>
      <path d="M -20117.998046875 -7024.03564453125 L -20117.998046875 -7136.001953125 L -21007.001953125 -7136.001953125 L -21009.001953125 -7136.001953125 L -21009.001953125 -7138.001953125 L -21009.001953125 -7164.99755859375 C -21009.001953125 -7169.80712890625 -21010.875 -7174.328125 -21014.2734375 -7177.72802734375 C -21017.671875 -7181.12841796875 -21022.19140625 -7183.00048828125 -21027 -7183.00048828125 L -21128 -7183.00048828125 C -21132.806640625 -7183.00048828125 -21137.326171875 -7181.1279296875 -21140.7265625 -7177.72802734375 C -21144.125 -7174.328125 -21145.998046875 -7169.806640625 -21145.998046875 -7164.99755859375 L -21145.998046875 -7138.001953125 L -21145.998046875 -7136.001953125 L -21147.998046875 -7136.001953125 L -21286 -7136.001953125 L -21286 -7024.03564453125 L -20117.998046875 -7024.03564453125 M -20115.998046875 -7022.03564453125 L -21288 -7022.03564453125 L -21288 -7138.001953125 L -21147.998046875 -7138.001953125 L -21147.998046875 -7164.99755859375 C -21147.998046875 -7176.04638671875 -21139.04296875 -7185.00048828125 -21128 -7185.00048828125 L -21027 -7185.00048828125 C -21015.955078125 -7185.00048828125 -21007.001953125 -7176.04638671875 -21007.001953125 -7164.99755859375 L -21007.001953125 -7138.001953125 L -20115.998046875 -7138.001953125 L -20115.998046875 -7022.03564453125 Z" stroke="none" fill="#ccc"/>
    </g>
  </g>
</svg>
