<svg id="组_608" data-name="组 608" xmlns="http://www.w3.org/2000/svg" width="73" height="26" viewBox="0 0 73 26">
  <rect id="矩形_698" data-name="矩形 698" width="73" height="26" rx="13" fill="#fe001d"/>
  <circle id="椭圆_56" data-name="椭圆 56" cx="11" cy="11" r="11" transform="translate(2 2)" fill="#fff"/>
  <text id="统计" transform="translate(33.503 17)" fill="#fff" font-size="12" font-family="'microsoft yahei','Helvetica Neue',Helvetica,Arial,sans-serif;" letter-spacing="0.1em"><tspan x="0" y="0">统计</tspan></text>
  <g id="组_618" data-name="组 618" transform="translate(597 1400.6)">
    <g id="组_609" data-name="组 609" transform="translate(-590.974 -1388.296)">
      <rect id="矩形_693" data-name="矩形 693" width="1.675" height="7.054" transform="translate(0 0)" fill="#fb5e49"/>
    </g>
    <g id="组_610" data-name="组 610" transform="translate(-586.876 -1390.786)">
      <rect id="矩形_694" data-name="矩形 694" width="1.675" height="9.543" transform="translate(0 0)" fill="#fb5e49"/>
    </g>
    <g id="组_611" data-name="组 611" transform="translate(-582.777 -1388.849)">
      <rect id="矩形_695" data-name="矩形 695" width="1.675" height="7.607" transform="translate(0 0)" fill="#fb5e49"/>
    </g>
    <g id="组_612" data-name="组 612" transform="translate(-578.679 -1392.23)">
      <rect id="矩形_696" data-name="矩形 696" width="1.642" height="10.988" transform="translate(0 0)" fill="#fb5e49"/>
    </g>
    <g id="组_613" data-name="组 613" transform="translate(-591 -1390.938)">
      <circle id="椭圆_57" data-name="椭圆 57" cx="0.862" cy="0.862" r="0.862" transform="translate(0 0)" fill="#fb5e49"/>
    </g>
    <g id="组_614" data-name="组 614" transform="translate(-586.96 -1393.307)">
      <circle id="椭圆_58" data-name="椭圆 58" cx="0.862" cy="0.862" r="0.862" transform="translate(0 0)" fill="#fb5e49"/>
    </g>
    <g id="组_615" data-name="组 615" transform="translate(-582.759 -1391.368)">
      <circle id="椭圆_59" data-name="椭圆 59" cx="0.862" cy="0.862" r="0.862" transform="translate(0 0)" fill="#fb5e49"/>
    </g>
    <g id="组_616" data-name="组 616" transform="translate(-578.72 -1394.6)">
      <circle id="椭圆_60" data-name="椭圆 60" cx="0.862" cy="0.862" r="0.862" transform="translate(0)" fill="#fb5e49"/>
    </g>
    <g id="组_617" data-name="组 617" transform="translate(-590.206 -1393.843)">
      <path id="路径_262" data-name="路径 262" d="M-587.917-1387.907l-.136-.232,4.1-2.406,4.189,1.934,3.975-3.18.168.21-4.1,3.284-4.213-1.944Z" transform="translate(588.053 1391.791)" fill="#fb5e49"/>
    </g>
  </g>
</svg>
