<svg xmlns="http://www.w3.org/2000/svg" xmlns:xlink="http://www.w3.org/1999/xlink" width="1190.002" height="180.965" viewBox="0 0 1190.002 180.965">
  <defs>
    <filter id="联合_8" x="0" y="0" width="1190.002" height="180.965" filterUnits="userSpaceOnUse">
      <feOffset dy="3" input="SourceAlpha"/>
      <feGaussianBlur stdDeviation="3" result="blur"/>
      <feFlood flood-opacity="0.161"/>
      <feComposite operator="in" in2="blur"/>
      <feComposite in="SourceGraphic"/>
    </filter>
  </defs>
  <g transform="matrix(1, 0, 0, 1, 0, 0)" filter="url(#联合_8)">
    <g id="联合_8-2" data-name="联合 8" transform="translate(21297 7191)" fill="#f9f9f9">
      <path d="M -20116.998046875 -7023.03564453125 L -21287 -7023.03564453125 L -21287 -7137.001953125 L -21007.001953125 -7137.001953125 L -21006.001953125 -7137.001953125 L -21006.001953125 -7138.001953125 L -21006.001953125 -7164.99755859375 C -21006.001953125 -7167.5634765625 -21005.5 -7170.05224609375 -21004.5078125 -7172.39453125 C -21003.55078125 -7174.6572265625 -21002.181640625 -7176.689453125 -21000.435546875 -7178.43505859375 C -20998.689453125 -7180.1806640625 -20996.65625 -7181.55078125 -20994.39453125 -7182.5078125 C -20992.052734375 -7183.498046875 -20989.564453125 -7184.00048828125 -20987 -7184.00048828125 L -20885.998046875 -7184.00048828125 C -20883.43359375 -7184.00048828125 -20880.9453125 -7183.498046875 -20878.603515625 -7182.5078125 C -20876.341796875 -7181.55078125 -20874.310546875 -7180.1806640625 -20872.564453125 -7178.43505859375 C -20870.8203125 -7176.68994140625 -20869.44921875 -7174.65771484375 -20868.4921875 -7172.39453125 C -20867.501953125 -7170.05224609375 -20867 -7167.5634765625 -20867 -7164.99755859375 L -20867 -7138.001953125 L -20867 -7137.001953125 L -20866 -7137.001953125 L -20116.998046875 -7137.001953125 L -20116.998046875 -7023.03564453125 Z" stroke="none"/>
      <path d="M -20117.998046875 -7024.03564453125 L -20117.998046875 -7136.001953125 L -20866 -7136.001953125 L -20868 -7136.001953125 L -20868 -7138.001953125 L -20868 -7164.99755859375 C -20868 -7169.806640625 -20869.873046875 -7174.328125 -20873.271484375 -7177.72802734375 C -20876.671875 -7181.1279296875 -20881.19140625 -7183.00048828125 -20885.998046875 -7183.00048828125 L -20987 -7183.00048828125 C -20991.806640625 -7183.00048828125 -20996.328125 -7181.1279296875 -20999.728515625 -7177.72802734375 C -21003.12890625 -7174.32763671875 -21005.001953125 -7169.80615234375 -21005.001953125 -7164.99755859375 L -21005.001953125 -7138.001953125 L -21005.001953125 -7136.001953125 L -21007.001953125 -7136.001953125 L -21286 -7136.001953125 L -21286 -7024.03564453125 L -20117.998046875 -7024.03564453125 M -20115.998046875 -7022.03564453125 L -21288 -7022.03564453125 L -21288 -7138.001953125 L -21007.001953125 -7138.001953125 L -21007.001953125 -7164.99755859375 C -21007.001953125 -7176.04638671875 -20998.04296875 -7185.00048828125 -20987 -7185.00048828125 L -20885.998046875 -7185.00048828125 C -20874.955078125 -7185.00048828125 -20866 -7176.04638671875 -20866 -7164.99755859375 L -20866 -7138.001953125 L -20115.998046875 -7138.001953125 L -20115.998046875 -7022.03564453125 Z" stroke="none" fill="#ccc"/>
    </g>
  </g>
</svg>
