<svg xmlns="http://www.w3.org/2000/svg" width="880" height="289.202" viewBox="0 0 880 289.202">
  <g id="台湾六合彩_开奖底" data-name="台湾六合彩 开奖底" transform="translate(-370 -952.799)">
    <path id="矩形_34" data-name="矩形 34" d="M0,0H269a18,18,0,0,1,18,18v0a18,18,0,0,1-18,18H0a0,0,0,0,1,0,0V0A0,0,0,0,1,0,0Z" transform="translate(370 1043)" fill="#bfd9cb"/>
    <g id="减去_1" data-name="减去 1" transform="translate(356 929)" fill="none">
      <path d="M894,313H14V79H201.753l47.513-55H894V313Z" stroke="none"/>
      <path d="M 888.999755859375 308.0003051757813 L 888.999755859375 29.00030326843262 L 251.5545043945313 29.00030326843262 L 205.5367279052734 82.26885986328125 L 204.0410614013672 84.00019073486328 L 201.7530670166016 84.00019073486328 L 19.00039482116699 84.00019073486328 L 19.00039482116699 308.0003051757813 L 888.999755859375 308.0003051757813 M 893.999755859375 313.0013122558594 L 893.999755859375 313.0003051757813 L 14.00039482116699 313.0003051757813 L 14.00039482116699 79.00019073486328 L 201.7530670166016 79.00019073486328 L 249.2665100097656 24.00030326843262 L 893.999755859375 24.00030326843262 L 893.999755859375 313.0003051757813 L 893.999755859375 313.0013122558594 Z" stroke="none" fill="#277d4f"/>
    </g>
    <path id="路径_6" data-name="路径 6" d="M0,0H173.788L132.02,47.321H0Z" transform="translate(370 955.222)" fill="#277d4f"/>
    <text id="台湾六合彩" transform="translate(379 990)" fill="#fff" font-size="23" font-family="NotoSansCJKsc-Bold, Noto Sans CJK SC" font-weight="700" letter-spacing="0.038em"><tspan x="0" y="0">台湾六合彩</tspan></text>
    <path id="路径_3" data-name="路径 3" d="M57.189-2.918H69.642l-45.6,52.4H11.592Z" transform="translate(528.259 955.718)" fill="#277d4f"/>
    <path id="路径_4" data-name="路径 4" d="M57.189-2.918H69.642l-45.6,52.4H11.592Z" transform="translate(510.825 955.718)" fill="#277d4f"/>
    <path id="路径_5" data-name="路径 5" d="M57.189-2.918H69.642l-45.6,52.4H11.592Z" transform="translate(493.391 955.718)" fill="#277d4f"/>
    <g id="组_24" data-name="组 24" transform="translate(0 334)">
      <path id="路径_17" data-name="路径 17" d="M0,0H173.788L132.02,35.121H0Z" transform="translate(1249.901 904.776) rotate(180)" fill="#277d4f"/>
      <path id="路径_18" data-name="路径 18" d="M45.6,0H58.05l-45.6,37.543H0Z" transform="translate(1078.05 907.198) rotate(180)" fill="#277d4f"/>
      <path id="路径_19" data-name="路径 19" d="M45.6,0H58.05l-45.6,37.543H0Z" transform="translate(1095.484 907.198) rotate(180)" fill="#277d4f"/>
      <path id="路径_20" data-name="路径 20" d="M45.6,0H58.05l-45.6,37.543H0Z" transform="translate(1112.918 907.198) rotate(180)" fill="#277d4f"/>
      <path id="路径_26" data-name="路径 26" d="M0,0H173.788L132.02,35.12H0Z" transform="translate(886.114 869.655)" fill="#277d4f"/>
    </g>
    <path id="路径_27" data-name="路径 27" d="M688.052,57.554H0L53.426-.734,688.052,0Z" transform="translate(557.114 955.222)" fill="#277d4f"/>
    <g id="组_361" data-name="组 361">
      <rect id="矩形_16" data-name="矩形 16" width="57" height="37" rx="11" transform="translate(920 965)" fill="#fff"/>
      <text id="天" transform="translate(981 998)" fill="#fff" font-size="16" font-family="NotoSansCJKsc-Medium, Noto Sans CJK SC" font-weight="500" letter-spacing="0.038em"><tspan x="0" y="0">天</tspan></text>
      <rect id="矩形_16-2" data-name="矩形 16" width="57" height="37" rx="11" transform="translate(1002 965)" fill="#fff"/>
      <text id="时" transform="translate(1063 998)" fill="#fff" font-size="16" font-family="NotoSansCJKsc-Medium, Noto Sans CJK SC" font-weight="500" letter-spacing="0.038em"><tspan x="0" y="0">时</tspan></text>
      <rect id="矩形_16-3" data-name="矩形 16" width="57" height="37" rx="11" transform="translate(1084 965)" fill="#fff"/>
      <text id="分" transform="translate(1145 998)" fill="#fff" font-size="16" font-family="NotoSansCJKsc-Medium, Noto Sans CJK SC" font-weight="500" letter-spacing="0.038em"><tspan x="0" y="0">分</tspan></text>
      <rect id="矩形_16-4" data-name="矩形 16" width="57" height="37" rx="11" transform="translate(1166 965)" fill="#fff"/>
      <text id="秒" transform="translate(1227 998)" fill="#fff" font-size="16" font-family="NotoSansCJKsc-Medium, Noto Sans CJK SC" font-weight="500" letter-spacing="0.038em"><tspan x="0" y="0">秒</tspan></text>
    </g>
  </g>
</svg>
