<svg xmlns="http://www.w3.org/2000/svg" viewBox="0 0 104 36"><defs><style>.cls-1{fill:#fff;}.cls-2,.cls-3{fill:#fe001d;}.cls-3{isolation:isolate;font-size:21px;font-family:MicrosoftYaHei, Microsoft YaHei;letter-spacing:0.1em;}</style></defs><g id="圖層_2" data-name="圖層 2"><g id="圖層_1-2" data-name="圖層 1"><g id="组件_32_2" data-name="组件 32 2"><g id="矩形_697" data-name="矩形 697"><path class="cls-1" d="M18,35.5a17.5,17.5,0,0,1,0-35H86a17.5,17.5,0,0,1,0,35Z"/><path class="cls-2" d="M86,1a17,17,0,0,1,0,34H18A17,17,0,0,1,18,1H86m0-1H18a18,18,0,0,0,0,36H86A18,18,0,0,0,86,0Z"/></g><path id="路径_261" data-name="路径 261" class="cls-2" d="M18,3A15,15,0,1,1,3,18,15,15,0,0,1,18,3Z"/><g id="组_609" data-name="组 609"><g id="组_609-2" data-name="组 609-2"><rect id="矩形_693" data-name="矩形 693" class="cls-1" x="8.04" y="17.06" width="2.41" height="10.14"/></g><g id="组_610" data-name="组 610"><rect id="矩形_694" data-name="矩形 694" class="cls-1" x="13.93" y="13.48" width="2.41" height="13.72"/></g><g id="组_611" data-name="组 611"><rect id="矩形_695" data-name="矩形 695" class="cls-1" x="19.82" y="16.26" width="2.41" height="10.93"/></g><g id="组_612" data-name="组 612"><rect id="矩形_696" data-name="矩形 696" class="cls-1" x="25.71" y="11.41" width="2.36" height="15.79"/></g><g id="组_613" data-name="组 613"><circle id="椭圆_57" data-name="椭圆 57" class="cls-1" cx="9.24" cy="14.5" r="1.24"/></g><g id="组_614" data-name="组 614"><circle id="椭圆_58" data-name="椭圆 58" class="cls-1" cx="15.04" cy="11.1" r="1.24"/></g><g id="组_615" data-name="组 615"><circle id="椭圆_59" data-name="椭圆 59" class="cls-1" cx="21.08" cy="13.88" r="1.24"/></g><g id="组_616" data-name="组 616"><circle id="椭圆_60" data-name="椭圆 60" class="cls-1" cx="26.89" cy="9.24" r="1.24"/></g><g id="组_617" data-name="组 617"><path id="路径_262" data-name="路径 262" class="cls-1" d="M9.34,14.67l-.2-.33L15,10.88l6,2.78,5.71-4.57.24.3-5.9,4.72-6.05-2.8Z"/></g></g><g id="统计"><text class="cls-3" transform="translate(41.21 25.32)">统计</text></g></g></g></g></svg>